<?xml version="1.0" encoding="UTF-8"?>
<svg fill="none" viewBox="0 0 32 48" xmlns="http://www.w3.org/2000/svg">
<path d="m23.396 23.653c-0.0434 0.2782-0.1492 0.543-0.3095 0.7746-0.1603 0.2315-0.3709 0.4237-0.616 0.5623-0.4937 0.3188-0.9256 0.4782-1.3626 0.6376-0.9307 0.3214-1.9103 0.6428-2.9464 1.0156-1.0926 0.3727-2.0722 0.7455-2.9463 1.0155-1.0901 0.3728-2.1262 0.6941-3.1109 1.0669-0.7408 0.3171-1.4367 0.7302-2.0696 1.229-0.58866 0.5333-1.1024 1.1439-1.5272 1.8151-0.43707 0.7455-0.71216 1.7071-0.71216 2.828 0 2.2445 0.54504 3.9516 1.6377 5.0186 1.0901 1.1235 3.1109 1.6557 6.106 1.6557 3.0544 0 5.1266-0.5862 6.2218-1.7611 1.0875-1.175 1.6325-2.8281 1.6325-4.962v-10.896h0.0026zm-7.8543-23.653c5.3476 0 9.2735 1.0155 11.78 3.098 2.5093 2.0311 3.7639 4.6432 3.7639 7.7386v26.378c0 1.0669-0.216 2.2419-0.5965 3.5222-0.3856 1.2855-1.1466 2.4579-2.3473 3.5222-1.1441 1.0721-2.7252 1.9797-4.7434 2.6738-2.0182 0.6942-4.6355 1.067-7.8543 1.067-3.2137 0-5.8361-0.3728-7.8518-1.067-2.0156-0.6941-3.5994-1.6017-4.7434-2.6738-1.0643-0.9591-1.8706-2.1702-2.3447-3.5222-0.38565-1.2778-0.60418-2.4527-0.60418-3.5196v-4.2164c0-2.2445 0.59904-4.327 1.7997-6.1447 1.2006-1.8665 2.8898-3.1468 5.0725-3.949 1.0901-0.3728 2.3447-0.7455 3.7613-1.2263 1.4192-0.4834 2.7253-0.9641 4.0364-1.3883 1.3112-0.4294 2.4553-0.8587 3.4349-1.2341 0.5911-0.2365 1.1915-0.4492 1.7996-0.6376l0.9822-0.4808c0.3856-0.2134 0.7635-0.5347 1.1466-0.9615 0.3805-0.4242 0.707-0.905 0.9821-1.4398 0.2907-0.579 0.4404-1.2186 0.4371-1.8665v-1.7097c4e-3 -0.6266-0.1275-1.2467-0.3857-1.8177-0.2159-0.6427-0.653-1.2289-1.252-1.7611-0.5991-0.53476-1.4192-0.96154-2.3987-1.2855-0.9822-0.31623-2.2882-0.4782-3.7639-0.4782-3.0544 0-5.0726 0.59132-6.1626 1.8151-0.92555 1.0695-1.4706 2.4038-1.5786 3.8976 0 0.3214-0.27252 0.5348-0.6016 0.5348l-6.6511 0.108c-0.15799 7e-4 -0.30986-0.0611-0.42254-0.1718-0.11268-0.1108-0.17704-0.2616-0.17907-0.4195v-1.5426c0-1.4989 0.27509-2.8872 0.87413-4.2216 0.60161-1.3369 1.5297-2.4553 2.7818-3.4194 1.2546-0.95897 2.8923-1.7586 4.854-2.2933 1.9102-0.64274 4.2549-0.90755 6.9802-0.90755h-0.0052z" clip-rule="evenodd" fill="#0A3871" fill-rule="evenodd"/>
</svg>
